<svg width="146" height="132" viewBox="0 0 146 132" fill="none" xmlns="http://www.w3.org/2000/svg">
<path d="M27.0888 110.594C27.3234 111.387 27.3526 112.143 27.1763 112.863C26.3713 116.438 23.8849 118.843 19.7169 120.077C18.4129 120.463 16.6879 120.695 14.5421 120.774C14.5572 120.825 14.5596 120.88 14.5491 120.939C14.5718 121.016 14.6949 121.243 14.9183 121.622C14.9068 121.959 14.7718 122.208 14.5132 122.368L14.161 122.305C13.6903 122.5 13.3333 122.328 13.0901 121.788C12.7712 120.992 12.562 120.568 12.4626 120.514C12.3888 120.452 12.0914 120.387 11.5706 120.319C11.1672 120.271 10.9201 120.094 10.8293 119.787C10.7158 119.404 10.8342 119.146 11.1846 119.015C11.553 118.85 11.7311 118.7 11.7188 118.565C11.7264 118.59 11.6659 118.386 11.5372 117.951C11.4085 117.516 11.217 116.822 10.9625 115.868C10.7336 114.907 10.5472 114.184 10.4034 113.698L9.96774 112.367C9.37779 112.347 9.0374 112.183 8.94658 111.876C8.83305 111.493 8.98136 111.101 9.3915 110.702L5.59964 97.8912C5.53909 97.6866 5.60404 97.3893 5.79448 96.9992C6.0105 96.6015 6.22079 96.3724 6.42535 96.3119C6.83447 96.1908 7.07596 96.161 7.1498 96.2226C7.34863 96.3306 7.53846 96.4552 7.71929 96.5963C8.00648 99.0699 8.30145 100.818 8.60419 101.841C8.60419 101.841 8.63969 101.914 8.71067 102.06C9.12493 97.0702 11.058 94.0646 14.51 93.0429C16.5045 92.4525 18.2529 92.7693 19.7554 93.9932C21.1026 95.0683 22.079 96.6287 22.6845 98.6743C23.1386 100.209 23.2272 101.823 22.9502 103.518C22.6466 105.499 21.9161 106.883 20.7587 107.671C24.2295 107.089 26.3395 108.063 27.0888 110.594ZM20.683 99.0999C19.5477 95.2644 17.5865 93.7591 14.7993 94.5841C12.9072 95.1442 11.5482 96.8952 10.7226 99.8372C9.97474 102.478 9.89598 104.796 10.4863 106.79L11.4854 110.165C11.3831 110.196 12.3292 109.916 14.3237 109.325C17.2642 108.455 19.2442 107.299 20.2635 105.857C21.3908 104.216 21.5307 101.964 20.683 99.0999ZM25.0646 110.943C24.6483 109.537 23.0244 109.03 20.1929 109.424C19.0404 109.57 17.0962 110.048 14.3602 110.858C13.2862 111.176 12.4523 111.506 11.8585 111.849C12.0827 112.7 12.5883 114.455 13.3755 117.115C13.5723 117.78 13.7757 118.373 13.9858 118.895C15.4251 119.247 17.1547 119.125 19.1748 118.527C20.8112 118.042 22.2656 117.084 23.5377 115.65C25.0098 114.047 25.5187 112.478 25.0646 110.943ZM41.1292 105.646C41.7801 107.845 41.8619 109.907 41.3747 111.831C40.8068 114.14 39.5 115.598 37.4544 116.203C35.3833 116.816 33.5979 116.469 32.0982 115.16C30.8609 114.081 29.9167 112.441 29.2658 110.242C28.6225 108.069 28.4764 105.79 28.8274 103.405C29.2903 100.46 30.4679 98.7066 32.3601 98.1465C32.8459 98.0027 33.6195 98.0796 34.681 98.3772C37.7991 99.2342 39.9485 101.657 41.1292 105.646ZM39.2768 106.153C38.7924 104.516 38.1399 103.11 37.3192 101.935C36.1426 100.309 34.8894 99.6922 33.5598 100.086C32.0256 100.54 31.1228 101.906 30.8513 104.183C30.6482 105.94 30.8115 107.713 31.3413 109.503C31.8181 111.114 32.4494 112.401 33.2351 113.364C34.3465 114.676 35.6053 115.124 37.0117 114.707C38.5459 114.253 39.452 113.039 39.73 111.066C39.9425 109.529 39.7915 107.891 39.2768 106.153ZM53.97 100.802C54.6285 103.027 54.8742 104.984 54.707 106.675C54.4838 109.021 53.4134 110.478 51.4956 111.046C51.0098 111.19 50.3161 111.242 49.4146 111.203C48.7072 111.162 47.9999 111.121 47.2925 111.08C47.2868 111.249 47.3104 111.423 47.3634 111.602C47.4012 111.729 47.467 111.905 47.5607 112.127C47.6619 112.375 47.7315 112.563 47.7693 112.691C47.8829 113.075 47.7223 113.331 47.2876 113.459C46.8529 113.588 46.4419 113.515 46.0547 113.24C45.8227 113.114 45.4588 112.402 44.963 111.102C44.576 110.077 44.2954 109.27 44.1213 108.682L44.0532 108.451L38.447 86.8336L38.984 86.6747C39.342 86.5687 39.7312 86.6621 40.1515 86.9549C40.5899 87.2144 40.8659 87.536 40.9794 87.9196C41.2594 88.8657 41.5479 90.3099 41.8447 92.2522C42.167 94.1869 42.4682 95.6273 42.7483 96.5734C42.7786 96.6757 42.9224 97.1615 43.1797 98.0309C43.3615 97.8936 43.5302 97.5239 43.6857 96.9217C43.88 96.1689 44.08 95.623 44.2856 95.2841C44.6607 94.6724 45.2191 94.2569 45.9606 94.0374C47.2135 93.6665 48.5028 93.8411 49.8283 94.5612C51.0213 95.2092 51.9642 96.1399 52.6571 97.3531C53.0934 98.1695 53.531 99.3193 53.97 100.802ZM52.0053 101.634C51.5361 100.049 50.9649 98.73 50.2919 97.6777C49.2763 96.0316 48.1932 95.3789 47.0425 95.7195C45.6362 96.1357 44.8304 97.5006 44.6252 99.8139C44.4703 101.64 44.6389 103.384 45.1309 105.046C45.5698 106.529 46.2002 107.719 47.0219 108.616C48.0774 109.833 49.2572 110.248 50.5613 109.862C51.8654 109.476 52.5646 108.268 52.6589 106.238C52.7076 104.805 52.4897 103.271 52.0053 101.634ZM68.3373 97.5926C68.9882 99.7916 69.0701 101.853 68.5828 103.777C68.0149 106.087 66.7082 107.544 64.6626 108.15C62.5914 108.763 60.806 108.415 59.3064 107.107C58.069 106.027 57.1249 104.388 56.474 102.189C55.8306 100.015 55.6845 97.7363 56.0355 95.3519C56.4985 92.4061 57.676 90.6531 59.5682 90.093C60.054 89.9492 60.8277 90.0261 61.8891 90.3238C65.0072 91.1807 67.1566 93.6036 68.3373 97.5926ZM66.4849 98.0991C66.0006 96.4627 65.348 95.0567 64.5273 93.8813C63.3507 92.255 62.0976 91.6387 60.7679 92.0323C59.2337 92.4864 58.3309 93.8521 58.0594 96.1295C57.8563 97.886 58.0196 99.6593 58.5494 101.449C59.0263 103.06 59.6575 104.347 60.4432 105.31C61.5546 106.622 62.8135 107.07 64.2198 106.654C65.754 106.2 66.6601 104.986 66.9381 103.013C67.1507 101.476 66.9996 99.8379 66.4849 98.0991ZM80.0225 85.9993C80.1509 87.1849 80.2922 88.3668 80.4462 89.5449C80.5718 90.8148 80.7897 91.9739 81.1 93.0223L84.6151 105.039C85.1222 106.752 84.9992 108.262 84.246 109.57C83.5259 110.895 82.2965 111.816 80.5578 112.33C79.6117 112.61 78.4748 112.669 77.1472 112.505C75.6255 112.344 74.4841 111.917 73.7229 111.225C73.5269 111.032 73.3949 110.821 73.3268 110.591C73.1073 109.849 73.3555 109.373 74.0715 109.161C74.2249 109.115 74.4062 109.117 74.6155 109.167C75.1864 109.498 75.7536 109.817 76.3169 110.123C77.4209 110.658 78.6378 110.729 79.9674 110.336C81.655 109.836 82.606 108.915 82.8204 107.572C82.9333 106.732 82.7022 105.341 82.127 103.397C82.0513 103.142 81.8488 102.646 81.5194 101.909C81.2279 101.3 81.0359 100.745 80.9432 100.244C80.424 101.12 80.0375 101.694 79.7836 101.964C79.3271 102.488 78.7664 102.849 78.1015 103.045C76.3628 103.56 74.8454 103.272 73.5493 102.182C72.4084 101.24 71.5693 99.8619 71.032 98.0464C70.0102 94.5945 69.1985 91.6643 68.5969 89.2561C68.457 88.4075 68.7834 87.866 69.5761 87.6313C70.5477 87.3437 71.0316 87.3813 71.0277 87.744C70.9355 89.2174 71.5743 92.2682 72.9442 96.8964C74.0038 100.476 75.5564 101.963 77.602 101.358C78.855 100.987 79.5684 99.733 79.7422 97.5957C79.8658 95.9461 79.6915 94.3708 79.2194 92.8698L77.8868 88.5086C77.7837 88.0664 77.6466 87.5091 77.4754 86.8367C77.3297 86.1567 77.6608 85.725 78.4686 85.5415C79.4118 85.3457 79.9298 85.4983 80.0225 85.9993ZM114.235 90.4313C114.333 90.7638 114.246 91.0814 113.975 91.3844C113.703 91.6873 113.401 91.888 113.068 91.9864C111.432 92.4708 107.193 89.7069 100.352 83.6946C100.216 83.7069 100.113 83.7793 100.041 83.9118C99.9943 84.0368 99.7724 84.9785 99.3751 86.7369C98.9059 88.6279 98.4404 90.5316 97.9787 92.4481C97.5084 94.6175 97.2867 96.5464 97.3137 98.2348C96.9774 98.6959 96.6175 98.9832 96.234 99.0967C95.697 99.2557 94.8297 98.9562 93.632 98.1983C93.9095 97.7268 94.3094 97.0105 94.8314 96.0495C95.0939 95.5268 95.7872 93.1246 96.9115 88.8428C98.0358 84.5609 98.5714 82.3305 98.5185 82.1515C98.4049 81.7679 96.7463 80.2983 93.5425 77.7425C90.3311 75.1611 88.6346 73.5636 88.4529 72.9499C88.2032 72.1061 88.5258 71.5518 89.4207 71.2869C89.8298 71.1658 90.5718 71.1825 91.6465 71.3372L91.8297 71.5333C92.1901 72.8449 93.2319 74.3442 94.9549 76.0312C96.3806 77.2778 97.8026 78.5117 99.2208 79.7327C99.8 77.837 100.573 74.9523 101.54 71.0786C101.606 70.3636 101.798 69.3197 102.115 67.9467C102.375 67.2299 102.749 66.7996 103.234 66.6558C103.516 66.5725 103.784 66.6323 104.038 66.835C104.319 67.0301 104.513 67.2646 104.622 67.5383L100.824 81.3439C102.078 82.669 104.077 84.4414 106.82 86.6609C110.153 89.3729 112.165 90.6268 112.856 90.4224C113.086 90.3543 113.231 90.1863 113.29 89.9183L113.712 89.7934C113.992 89.9886 114.167 90.2012 114.235 90.4313ZM133.459 77.1073C133.943 78.7437 133.885 80.3323 133.284 81.8728C131.865 85.6299 129.149 88.1026 125.134 89.2909C123.421 89.798 121.673 90.093 119.89 90.1758C118.978 90.1955 117.935 89.9617 116.762 89.4747C115.431 88.9232 114.656 88.2767 114.436 87.5351C114.368 87.305 114.415 87.0408 114.577 86.7426C114.764 86.4367 114.973 86.2498 115.203 86.1817C115.613 86.0606 116.095 86.2794 116.649 86.8383C117.023 87.256 117.397 87.6737 117.771 88.0914C118.919 89.0586 120.849 89.1411 123.559 88.3388C125.4 87.7938 126.991 86.9198 128.331 85.7166C129.777 84.3988 130.715 82.8697 131.145 81.1293C131.433 79.8481 131.46 78.8112 131.225 78.0186C130.794 76.5611 129.627 75.53 127.724 74.9253C126.019 74.4286 124.4 74.4073 122.866 74.8614C122.559 74.9523 121.729 75.5316 120.377 76.5994C119.016 77.6416 117.863 78.3027 116.917 78.5828C116.022 78.8477 115.514 78.7756 115.393 78.3664C115.28 77.9829 115.359 77.5004 115.632 76.9191C115.931 76.3301 116.806 75.7651 118.259 75.2238C119.978 74.5481 121.006 74.0768 121.345 73.8099C122.09 73.2277 122.87 72.0097 123.684 70.1557C124.444 68.4012 124.623 66.8464 124.222 65.4912C123.957 64.5962 123.473 63.9469 122.769 63.5433C122.066 63.1397 121.267 63.0704 120.372 63.3353C119.374 63.6305 118.227 64.3593 116.931 65.5218C115.652 66.6512 114.807 67.694 114.394 68.6503C114.294 68.8747 114.363 69.2019 114.602 69.6319C114.277 70.2284 113.944 70.8415 113.602 71.4711C113.065 72.381 112.656 72.8776 112.375 72.9608C112.145 73.0289 111.846 73.0061 111.478 72.8924C111.137 72.7711 110.935 72.6082 110.875 72.4036C110.746 71.9689 110.859 71.2682 111.212 70.3014C111.862 68.5516 113.018 66.819 114.679 65.1036C116.428 63.3067 118.159 62.1548 119.872 61.6477C121.304 61.2238 122.61 61.2682 123.791 61.7809C124.99 62.2603 125.801 63.2161 126.225 64.648C126.588 65.8753 126.523 67.2991 126.029 68.9192C125.636 70.3149 125.009 71.6267 124.149 72.8547C124.23 72.9419 124.998 72.9511 126.451 72.8823C128.056 72.8525 129.365 73.0489 130.38 73.4715C131.91 74.131 132.936 75.3429 133.459 77.1073ZM134.998 60.8415C135.021 60.9182 135.132 61.8586 135.332 63.6626C135.758 67.2631 136.229 69.9327 136.743 71.6714L139.093 79.6109C139.737 81.7844 140.254 83.0634 140.646 83.448C140.687 83.4915 140.827 83.5891 141.067 83.7407C141.306 83.8923 141.445 84.032 141.483 84.1598C141.611 84.5945 141.458 84.8762 141.024 85.0049C140.615 85.126 140.041 85.1149 139.304 84.9717C138.97 84.5976 138.743 84.206 138.622 83.7968L133.525 66.5754C133.367 66.511 133.117 66.4181 132.775 66.2968L132.502 65.3763C132.328 64.7882 132.205 63.5732 132.133 61.7313C132.048 59.754 132.146 58.7238 132.427 58.6405C132.811 58.527 133.301 58.7714 133.896 59.3739C134.509 59.9432 134.877 60.4324 134.998 60.8415Z" fill="#8682E3"/>
<mask id="mask0_185_2267" style="mask-type:luminance" maskUnits="userSpaceOnUse" x="66" y="0" width="45" height="62">
<path fill-rule="evenodd" clip-rule="evenodd" d="M73.2504 61.8538L110.221 57.4219L103.418 0.672668L66.4475 5.10458L73.2504 61.8538Z" fill="white"/>
</mask>
<g mask="url(#mask0_185_2267)">
<path fill-rule="evenodd" clip-rule="evenodd" d="M100.193 51.3716C100.231 49.3526 100.336 47.3306 100.298 45.3143C99.9977 29.4598 91.2977 18.1656 77.5677 9.64517C74.6909 7.93166 71.6169 6.5052 68.3984 5.38802C67.9177 5.21241 67.3613 4.69681 66.8388 5.24714C66.3583 5.75246 66.5806 6.36845 66.8451 6.90433C67.287 7.62121 68.0321 8.13701 68.9098 8.33354C78.6728 11.7538 86.951 17.9102 92.5807 25.9362C97.5826 32.8883 98.4455 40.6913 97.9157 48.7975C97.9478 50.1996 97.7781 51.6039 97.412 52.9738C95.4347 50.9079 93.5901 48.9417 91.6926 47.0195C91.1866 46.5068 90.6128 45.42 89.7903 46.0642C88.913 46.7508 89.6248 47.7127 90.2913 48.3635C92.5468 50.5641 94.7068 52.8414 96.7731 55.1944C97.4428 56.0357 98.0435 56.9211 98.5709 57.8447C99.1189 58.7079 99.8232 59.2416 100.537 57.7762C102.502 53.7182 105.061 49.9153 108.144 46.4721C108.848 45.8159 108.936 44.7983 108.351 44.0749C107.696 43.0663 107.021 42.7754 106.032 43.9158C103.977 46.2906 102.161 48.8 100.185 51.3692" fill="#8682E3"/>
</g>
</svg>
