<svg width="20" height="23" viewBox="0 0 20 23" fill="none" xmlns="http://www.w3.org/2000/svg">
<path d="M14.9549 0C13.6601 0.0919223 12.1467 0.942593 11.2647 2.05033C10.4602 3.05525 9.79839 4.54782 10.0564 5.99832C11.4712 6.0435 12.933 5.17258 13.78 4.04614C14.5724 2.9976 15.172 1.51438 14.9549 0Z" fill="white"/>
<path d="M19.3224 7.38382C18.1239 5.87539 16.4395 5 14.8488 5C12.7488 5 11.8605 6.00905 10.4014 6.00905C8.89704 6.00905 7.75411 5.00294 5.93801 5.00294C4.1541 5.00294 2.25458 6.09717 1.05019 7.96839C-0.64299 10.6034 -0.353233 15.5576 2.39068 19.7773C3.37263 21.2872 4.68386 22.9852 6.39898 22.9998C7.92533 23.0145 8.35557 22.0172 10.4234 22.0069C12.4912 21.9952 12.8834 23.0131 14.4068 22.9969C16.1234 22.9837 17.5063 21.1022 18.4883 19.5923C19.1922 18.5098 19.4541 17.9649 20 16.7429C16.0297 15.2256 15.3932 9.55908 19.3224 7.38382Z" fill="white"/>
</svg>
