<svg width="143" height="143" viewBox="0 0 143 143" fill="none" xmlns="http://www.w3.org/2000/svg">
<circle opacity="0.12" cx="71.3572" cy="71.5" r="62.5" fill="#00C566"/>
<path d="M71.4286 142.857C32.0266 142.857 0 110.831 0 71.4286C0 32.0266 32.0266 0 71.4286 0C110.831 0 142.857 32.0266 142.857 71.4286C142.857 110.831 110.831 142.857 71.4286 142.857ZM71.4286 9.96678C37.5415 9.96678 9.96678 37.5415 9.96678 71.4286C9.96678 105.316 37.5415 132.89 71.4286 132.89C105.316 132.89 132.89 105.316 132.89 71.4286C132.89 37.5415 105.316 9.96678 71.4286 9.96678Z" fill="#00C566"/>
<path d="M61.3905 95.8673C60.0572 95.8673 58.7905 95.334 57.8572 94.4007L38.9905 75.534C37.0572 73.6007 37.0572 70.4007 38.9905 68.4673C40.9239 66.534 44.1239 66.534 46.0572 68.4673L61.3905 83.8007L95.6572 49.534C97.5905 47.6007 100.791 47.6007 102.724 49.534C104.657 51.4673 104.657 54.6673 102.724 56.6006L64.9239 94.4007C63.9905 95.334 62.7239 95.8673 61.3905 95.8673Z" fill="#00C566"/>
</svg>
