<svg width="25" height="25" viewBox="0 0 25 25" fill="none" xmlns="http://www.w3.org/2000/svg">
<path d="M24.0554 10.3267L13.8581 10.3262C13.4078 10.3262 13.0428 10.6911 13.0428 11.1414V14.399C13.0428 14.8492 13.4078 15.2142 13.8581 15.2142H19.6005C18.9717 16.8461 17.7981 18.2127 16.3007 19.0811L18.7493 23.3198C22.6772 21.0482 24.9993 17.0624 24.9993 12.6006C24.9993 11.9653 24.9525 11.5111 24.8589 10.9998C24.7877 10.6112 24.4504 10.3267 24.0554 10.3267Z" fill="#167EE6"/>
<path d="M12.4979 20.1083C9.68761 20.1083 7.23429 18.5729 5.91666 16.3008L1.67807 18.7438C3.83506 22.4822 7.87579 24.9996 12.4979 24.9996C14.7653 24.9996 16.9048 24.3891 18.7479 23.3252V23.3194L16.2993 19.0807C15.1793 19.7303 13.8832 20.1083 12.4979 20.1083Z" fill="#12B347"/>
<path d="M18.75 23.3256V23.3198L16.3014 19.0811C15.1814 19.7306 13.8854 20.1087 12.5 20.1087V25C14.7674 25 16.907 24.3895 18.75 23.3256Z" fill="#0F993E"/>
<path d="M4.89132 12.5C4.89132 11.1148 5.26935 9.81889 5.91881 8.69892L1.68023 6.25586C0.610451 8.09311 0 10.2268 0 12.5C0 14.7733 0.610451 16.907 1.68023 18.7442L5.91881 16.3011C5.26935 15.1812 4.89132 13.8852 4.89132 12.5Z" fill="#FFD500"/>
<path d="M12.4979 4.8913C14.3304 4.8913 16.0138 5.54247 17.3285 6.62562C17.6529 6.89281 18.1244 6.87352 18.4215 6.5764L20.7296 4.2683C21.0667 3.93119 21.0427 3.37939 20.6826 3.06698C18.4797 1.15591 15.6135 0 12.4979 0C7.87579 0 3.83506 2.51743 1.67807 6.2558L5.91666 8.69886C7.23429 6.42674 9.68761 4.8913 12.4979 4.8913Z" fill="#FF4B26"/>
<path d="M17.3306 6.62562C17.655 6.89281 18.1265 6.87352 18.4236 6.5764L20.7317 4.2683C21.0687 3.93119 21.0447 3.37939 20.6847 3.06698C18.4818 1.15586 15.6156 0 12.5 0V4.8913C14.3325 4.8913 16.0158 5.54247 17.3306 6.62562Z" fill="#D93F21"/>
</svg>
