<svg width="110" height="28" viewBox="0 0 110 28" fill="none" xmlns="http://www.w3.org/2000/svg">
<path d="M10.0879 21.3481C8.81123 21.3481 7.61209 21.1254 6.49047 20.6799C5.37796 20.2254 4.39767 19.5617 3.54961 18.689C2.71067 17.8163 2.05411 16.7481 1.57993 15.4845C1.10574 14.2117 0.868652 12.7572 0.868652 11.1208C0.868652 8.97537 1.26988 7.14355 2.07235 5.62537C2.87481 4.0981 3.97364 2.92992 5.36884 2.12083C6.76403 1.30265 8.33705 0.893555 10.0879 0.893555C12.5135 0.893555 14.433 1.45719 15.8465 2.58446C17.269 3.70265 18.2311 5.27537 18.7326 7.30265L15.3677 7.83446C14.9939 6.67083 14.3829 5.74355 13.5348 5.05265C12.6868 4.35265 11.6062 4.00265 10.2931 4.00265C8.97081 3.98446 7.87198 4.27083 6.99657 4.86174C6.12115 5.45265 5.46003 6.28446 5.0132 7.35719C4.57549 8.42992 4.35664 9.68446 4.35664 11.1208C4.35664 12.5572 4.57549 13.8072 5.0132 14.8708C5.45091 15.9254 6.10747 16.7481 6.98289 17.339C7.86742 17.9299 8.97081 18.2345 10.2931 18.2526C11.287 18.2617 12.1579 18.0845 12.9056 17.7208C13.6534 17.3481 14.2643 16.789 14.7385 16.0436C15.2127 15.289 15.5319 14.3481 15.696 13.2208H12.2217V10.6436H19.1977C19.2159 10.789 19.2296 11.0026 19.2387 11.2845C19.2478 11.5663 19.2524 11.7345 19.2524 11.789C19.2524 13.6436 18.8831 15.2936 18.1444 16.739C17.4149 18.1754 16.3663 19.3026 14.9984 20.1208C13.6306 20.939 11.9937 21.3481 10.0879 21.3481Z" fill="#131C39"/>
<path d="M24.8994 21.3481C23.8325 21.3481 22.9297 21.1481 22.1911 20.7481C21.4525 20.339 20.8917 19.7981 20.5087 19.1254C20.1348 18.4526 19.9479 17.7117 19.9479 16.9026C19.9479 16.1936 20.0664 15.5572 20.3035 14.9936C20.5406 14.4208 20.9053 13.9299 21.3978 13.5208C21.8902 13.1026 22.5285 12.7617 23.3127 12.4981C23.9055 12.3072 24.5985 12.1345 25.3918 11.9799C26.1943 11.8254 27.0606 11.6845 27.9907 11.5572C28.93 11.4208 29.9103 11.2754 30.9316 11.1208L29.7552 11.789C29.7644 10.7708 29.5364 10.0208 29.0713 9.53901C28.6063 9.05719 27.822 8.81628 26.7186 8.81628C26.053 8.81628 25.4101 8.97083 24.79 9.27992C24.1699 9.58901 23.7368 10.1208 23.4906 10.8754L20.4813 9.93446C20.8461 8.68901 21.5391 7.68901 22.5604 6.93446C23.5909 6.17992 24.9769 5.80265 26.7186 5.80265C28.0318 5.80265 29.1853 6.01628 30.1793 6.44355C31.1824 6.87083 31.9255 7.57083 32.4089 8.54355C32.6733 9.06174 32.8329 9.59355 32.8876 10.139C32.9423 10.6754 32.9697 11.2617 32.9697 11.8981V20.939H30.0835V17.7481L30.5623 18.2663C29.8966 19.3299 29.1169 20.1117 28.2233 20.6117C27.3387 21.1026 26.2308 21.3481 24.8994 21.3481ZM25.556 18.7299C26.3037 18.7299 26.9421 18.5981 27.471 18.3345C27.9999 18.0708 28.4193 17.7481 28.7294 17.3663C29.0485 16.9845 29.2628 16.6254 29.3723 16.289C29.5455 15.8708 29.6413 15.3936 29.6595 14.8572C29.6869 14.3117 29.7005 13.8708 29.7005 13.5345L30.7127 13.8345C29.7188 13.989 28.8662 14.1254 28.1549 14.2436C27.4436 14.3617 26.8326 14.4754 26.322 14.5845C25.8113 14.6845 25.3599 14.7981 24.9678 14.9254C24.5848 15.0617 24.2611 15.2208 23.9967 15.4026C23.7322 15.5845 23.527 15.7936 23.3811 16.0299C23.2443 16.2663 23.1759 16.5436 23.1759 16.8617C23.1759 17.2254 23.2671 17.5481 23.4495 17.8299C23.6319 18.1026 23.8963 18.3208 24.2429 18.4845C24.5985 18.6481 25.0362 18.7299 25.556 18.7299Z" fill="#131C39"/>
<path d="M53.0405 20.939V11.9936C53.0405 10.9845 52.7898 10.1981 52.2882 9.63446C51.7867 9.06174 51.1073 8.77537 50.2502 8.77537C49.7213 8.77537 49.2471 8.8981 48.8276 9.14355C48.4081 9.37992 48.0753 9.73446 47.8291 10.2072C47.5829 10.6708 47.4598 11.2254 47.4598 11.8708L45.9962 11.0117C45.9871 9.99356 46.215 9.0981 46.6801 8.32537C47.1543 7.54355 47.7926 6.93446 48.5951 6.4981C49.3975 6.06174 50.2912 5.84355 51.276 5.84355C52.9083 5.84355 54.1576 6.33446 55.0239 7.31628C55.8993 8.28901 56.337 9.57083 56.337 11.1617V20.939H53.0405ZM35.2723 20.939V6.21174H38.1858V10.7799H38.5962V20.939H35.2723ZM44.177 20.939V12.0345C44.177 11.0072 43.9262 10.2072 43.4246 9.63446C42.9231 9.06174 42.2392 8.77537 41.3729 8.77537C40.534 8.77537 39.8591 9.06174 39.3485 9.63446C38.847 10.2072 38.5962 10.9526 38.5962 11.8708L37.1189 10.889C37.1189 9.93446 37.356 9.07537 37.8302 8.31174C38.3044 7.5481 38.9427 6.9481 39.7452 6.51174C40.5567 6.06628 41.4641 5.84355 42.4672 5.84355C43.5705 5.84355 44.4916 6.07992 45.2302 6.55265C45.9779 7.01628 46.5342 7.65265 46.899 8.46174C47.2728 9.26174 47.4598 10.1663 47.4598 11.1754V20.939H44.177Z" fill="#131C39"/>
<path d="M64.8837 27.8936C64.063 27.8936 63.2742 27.7663 62.5173 27.5117C61.7696 27.2572 61.0948 26.889 60.4929 26.4072C59.8911 25.9345 59.3986 25.3617 59.0156 24.689L62.0522 23.189C62.3349 23.7254 62.7316 24.1208 63.2423 24.3754C63.762 24.639 64.3137 24.7708 64.8973 24.7708C65.5813 24.7708 66.1922 24.6481 66.7303 24.4026C67.2683 24.1663 67.6832 23.8117 67.975 23.339C68.2759 22.8754 68.4173 22.2936 68.399 21.5936V17.4072H68.8094V6.21174H71.6955V21.6481C71.6955 22.0208 71.6773 22.3754 71.6408 22.7117C71.6134 23.0572 71.5633 23.3936 71.4903 23.7208C71.2715 24.6754 70.852 25.4572 70.2319 26.0663C69.6118 26.6845 68.8413 27.1436 67.9203 27.4436C67.0084 27.7436 65.9962 27.8936 64.8837 27.8936ZM64.5964 21.3481C63.2377 21.3481 62.0522 21.0072 61.0401 20.3254C60.0279 19.6436 59.2436 18.7163 58.6874 17.5436C58.1311 16.3708 57.853 15.0481 57.853 13.5754C57.853 12.0845 58.1311 10.7572 58.6874 9.59356C59.2527 8.42083 60.0506 7.4981 61.0811 6.82537C62.1115 6.14356 63.3243 5.80265 64.7195 5.80265C66.1238 5.80265 67.3002 6.14356 68.2486 6.82537C69.206 7.4981 69.931 8.42083 70.4234 9.59356C70.9158 10.7663 71.162 12.0936 71.162 13.5754C71.162 15.039 70.9158 16.3617 70.4234 17.5436C69.931 18.7163 69.1969 19.6436 68.2212 20.3254C67.2455 21.0072 66.0372 21.3481 64.5964 21.3481ZM65.1025 18.4026C65.9871 18.4026 66.6983 18.2026 67.2364 17.8026C67.7835 17.3936 68.1802 16.8254 68.4264 16.0981C68.6817 15.3708 68.8094 14.5299 68.8094 13.5754C68.8094 12.6117 68.6817 11.7708 68.4264 11.0526C68.1802 10.3254 67.7926 9.76174 67.2637 9.36174C66.7348 8.95265 66.0509 8.7481 65.212 8.7481C64.3274 8.7481 63.5979 8.96628 63.0234 9.40265C62.4489 9.82992 62.0249 10.4117 61.7513 11.1481C61.4778 11.8754 61.341 12.6845 61.341 13.5754C61.341 14.4754 61.4732 15.2936 61.7376 16.0299C62.0112 16.7572 62.4261 17.3345 62.9824 17.7617C63.5386 18.189 64.2453 18.4026 65.1025 18.4026Z" fill="#131C39"/>
<path d="M78.431 21.3481C77.3641 21.3481 76.4613 21.1481 75.7227 20.7481C74.9841 20.339 74.4233 19.7981 74.0403 19.1254C73.6664 18.4526 73.4795 17.7117 73.4795 16.9026C73.4795 16.1936 73.598 15.5572 73.8351 14.9936C74.0722 14.4208 74.437 13.9299 74.9294 13.5208C75.4218 13.1026 76.0601 12.7617 76.8443 12.4981C77.4371 12.3072 78.1301 12.1345 78.9235 11.9799C79.7259 11.8254 80.5922 11.6845 81.5223 11.5572C82.4616 11.4208 83.4419 11.2754 84.4632 11.1208L83.2869 11.789C83.296 10.7708 83.068 10.0208 82.6029 9.53901C82.1379 9.05719 81.3536 8.81628 80.2503 8.81628C79.5846 8.81628 78.9417 8.97083 78.3216 9.27992C77.7015 9.58901 77.2684 10.1208 77.0222 10.8754L74.0129 9.93446C74.3777 8.68901 75.0707 7.68901 76.092 6.93446C77.1225 6.17992 78.5085 5.80265 80.2503 5.80265C81.5634 5.80265 82.7169 6.01628 83.7109 6.44355C84.714 6.87083 85.4572 7.57083 85.9405 8.54355C86.2049 9.06174 86.3645 9.59355 86.4192 10.139C86.4739 10.6754 86.5013 11.2617 86.5013 11.8981V20.939H83.6151V17.7481L84.0939 18.2663C83.4282 19.3299 82.6485 20.1117 81.7549 20.6117C80.8703 21.1026 79.7624 21.3481 78.431 21.3481ZM79.0876 18.7299C79.8354 18.7299 80.4737 18.5981 81.0026 18.3345C81.5315 18.0708 81.9509 17.7481 82.261 17.3663C82.5801 16.9845 82.7944 16.6254 82.9039 16.289C83.0771 15.8708 83.1729 15.3936 83.1911 14.8572C83.2185 14.3117 83.2321 13.8708 83.2321 13.5345L84.2443 13.8345C83.2504 13.989 82.3978 14.1254 81.6865 14.2436C80.9752 14.3617 80.3643 14.4754 79.8536 14.5845C79.3429 14.6845 78.8915 14.7981 78.4994 14.9254C78.1164 15.0617 77.7927 15.2208 77.5283 15.4026C77.2638 15.5845 77.0586 15.7936 76.9127 16.0299C76.7759 16.2663 76.7076 16.5436 76.7076 16.8617C76.7076 17.2254 76.7988 17.5481 76.9811 17.8299C77.1635 18.1026 77.428 18.3208 77.7745 18.4845C78.1301 18.6481 78.5678 18.7299 79.0876 18.7299Z" fill="#131C39"/>
<path d="M106.572 20.939V11.9936C106.572 10.9845 106.321 10.1981 105.82 9.63446C105.318 9.06174 104.639 8.77537 103.782 8.77537C103.253 8.77537 102.779 8.8981 102.359 9.14355C101.94 9.37992 101.607 9.73446 101.361 10.2072C101.114 10.6708 100.991 11.2254 100.991 11.8708L99.5278 11.0117C99.5187 9.99356 99.7467 9.0981 100.212 8.32537C100.686 7.54355 101.324 6.93446 102.127 6.4981C102.929 6.06174 103.823 5.84355 104.808 5.84355C106.44 5.84355 107.689 6.33446 108.556 7.31628C109.431 8.28901 109.869 9.57083 109.869 11.1617V20.939H106.572ZM88.8039 20.939V6.21174H91.7174V10.7799H92.1278V20.939H88.8039ZM97.7086 20.939V12.0345C97.7086 11.0072 97.4578 10.2072 96.9563 9.63446C96.4547 9.06174 95.7708 8.77537 94.9045 8.77537C94.0656 8.77537 93.3908 9.06174 92.8801 9.63446C92.3786 10.2072 92.1278 10.9526 92.1278 11.8708L90.6505 10.889C90.6505 9.93446 90.8876 9.07537 91.3618 8.31174C91.836 7.5481 92.4743 6.9481 93.2768 6.51174C94.0884 6.06628 94.9957 5.84355 95.9988 5.84355C97.1022 5.84355 98.0232 6.07992 98.7618 6.55265C99.5096 7.01628 100.066 7.65265 100.431 8.46174C100.804 9.26174 100.991 10.1663 100.991 11.1754V20.939H97.7086Z" fill="#131C39"/>
</svg>
