<svg width="39" height="29" viewBox="0 0 39 29" fill="none" xmlns="http://www.w3.org/2000/svg">
<path d="M29.8444 19.5694C30.624 17.8523 31.0253 16.0119 31.0253 14.1533H38.7808C38.7808 21.9698 31.8355 28.3063 23.2681 28.3063C21.9264 28.3063 20.6244 28.1509 19.3828 27.8588C20.0853 27.6937 20.7758 27.4834 21.449 27.229C23.3311 26.5177 25.0412 25.4753 26.4817 24.161C27.9222 22.8468 29.0649 21.2866 29.8444 19.5694Z" fill="#B1B9FC"/>
<path d="M38.7808 14.1531C38.7808 10.3995 37.1464 6.79955 34.2372 4.14534C31.328 1.49113 27.3823 4.92229e-07 23.2681 0C19.1539 -4.92228e-07 15.2082 1.49113 12.299 4.14534C9.38974 6.79955 7.75537 10.3995 7.75537 14.1531H12.6032C14.2096 14.1531 15.4624 12.9249 16.0508 11.5611C16.4371 10.6657 17.0233 9.84285 17.7835 9.14919C19.2381 7.82209 21.211 7.07654 23.2681 7.07654C25.3252 7.07654 27.2981 7.82209 28.7527 9.14919C30.2073 10.4763 31.0244 12.2763 31.0244 14.1531H38.7808Z" fill="#93D0E5"/>
<path d="M0 14.1533C-2.91433e-07 16.012 0.401247 17.8524 1.18083 19.5695C1.96042 21.2867 3.10307 22.8469 4.54356 24.1611C5.98404 25.4753 7.69415 26.5178 9.57623 27.2291C11.4583 27.9404 13.4755 28.3064 15.5127 28.3064C17.5498 28.3064 19.567 27.9404 21.4491 27.2291C23.3312 26.5178 25.0413 25.4753 26.4818 24.1611C27.9223 22.8469 29.0649 21.2867 29.8445 19.5695C30.6241 17.8524 31.0254 16.012 31.0254 14.1533H26.1776C24.5712 14.1533 23.3184 15.3815 22.73 16.7452C22.7133 16.7841 22.6961 16.8228 22.6786 16.8615C22.2888 17.72 21.7175 18.5001 20.9972 19.1572C20.277 19.8143 19.4219 20.3356 18.4809 20.6913C17.5399 21.0469 16.5313 21.2299 15.5127 21.2299C14.4941 21.2299 13.4855 21.0469 12.5445 20.6913C11.6034 20.3356 10.7484 19.8143 10.0281 19.1572C9.30787 18.5001 8.73655 17.72 8.34676 16.8615C7.95696 16.0028 7.75634 15.0826 7.75634 14.1533H0Z" fill="#679AE5"/>
<path d="M0.00146484 14.1531C0.00146484 6.33653 6.94671 0 15.5141 0C16.8555 0 18.1571 0.155325 19.3986 0.447349C16.7347 1.07345 14.2773 2.34051 12.299 4.14535C9.3898 6.79954 7.75545 10.3995 7.75545 14.1531H0.00146484Z" fill="#3E89AE"/>
</svg>
