<svg width="105" height="105" viewBox="0 0 105 105" fill="none" xmlns="http://www.w3.org/2000/svg">
<g filter="url(#filter0_d_276_2138)">
<circle cx="52.5" cy="49.5" r="26.5" fill="#8682E3"/>
</g>
<path d="M49.3592 40C49.7713 40 50.0952 40.3276 50.0952 40.7225C50.0952 41.0116 50.3405 41.2428 50.6349 41.2428H51.6065C53.0883 41.2524 54.2954 42.4374 54.3052 43.8825V44.0655C55.2375 44.0655 56.1698 44.0848 57.1119 44.0944C60.5172 44.0944 63 46.5222 63 49.8748V54.1811C63 57.5337 60.5172 59.9615 57.1119 59.9615C55.7478 59.9904 54.3837 60 53.0098 60C51.6359 60 50.2522 59.9904 48.8881 59.9615C45.4828 59.9615 43 57.5337 43 54.1811V49.8748C43 46.5222 45.4828 44.0944 48.8979 44.0944C50.1835 44.0751 51.4985 44.0559 52.8332 44.0559V43.8921C52.8332 43.2274 52.2738 42.6879 51.6065 42.6879H50.6349C49.526 42.6879 48.6232 41.8015 48.6232 40.7225C48.6232 40.3276 48.9568 40 49.3592 40ZM50.0854 49.5665C49.6732 49.5665 49.3494 49.894 49.3494 50.289V51.3006H48.3091C47.9068 51.3006 47.5731 51.6281 47.5731 52.0231C47.5731 52.4277 47.9068 52.7457 48.3091 52.7457H49.3494V53.7669C49.3494 54.1618 49.6732 54.4894 50.0854 54.4894C50.4877 54.4894 50.8214 54.1618 50.8214 53.7669V52.7457H51.8518C52.2542 52.7457 52.5878 52.4277 52.5878 52.0231C52.5878 51.6281 52.2542 51.3006 51.8518 51.3006H50.8214V50.289C50.8214 49.894 50.4877 49.5665 50.0854 49.5665ZM57.7988 52.9865H57.7007C57.2875 52.9865 56.9647 53.3141 56.9647 53.7091C56.9647 54.1137 57.2875 54.4316 57.7007 54.4316H57.7988C58.2012 54.4316 58.5348 54.1137 58.5348 53.7091C58.5348 53.3141 58.2012 52.9865 57.7988 52.9865ZM56.1207 49.6724H56.0226C55.6104 49.6724 55.2866 50 55.2866 50.395C55.2866 50.7996 55.6104 51.1175 56.0226 51.1175H56.1207C56.5231 51.1175 56.8567 50.7996 56.8567 50.395C56.8567 50 56.5231 49.6724 56.1207 49.6724Z" fill="white"/>
<defs>
<filter id="filter0_d_276_2138" x="0" y="0" width="105" height="105" filterUnits="userSpaceOnUse" color-interpolation-filters="sRGB">
<feFlood flood-opacity="0" result="BackgroundImageFix"/>
<feColorMatrix in="SourceAlpha" type="matrix" values="0 0 0 0 0 0 0 0 0 0 0 0 0 0 0 0 0 0 127 0" result="hardAlpha"/>
<feOffset dy="3"/>
<feGaussianBlur stdDeviation="13"/>
<feColorMatrix type="matrix" values="0 0 0 0 0.52549 0 0 0 0 0.509804 0 0 0 0 0.890196 0 0 0 0.44 0"/>
<feBlend mode="normal" in2="BackgroundImageFix" result="effect1_dropShadow_276_2138"/>
<feBlend mode="normal" in="SourceGraphic" in2="effect1_dropShadow_276_2138" result="shape"/>
</filter>
</defs>
</svg>
